<svg width="17" height="30" viewBox="0 0 17 30" fill="none" xmlns="http://www.w3.org/2000/svg">
<path fill-rule="evenodd" clip-rule="evenodd" d="M8.86197 0.813118C11.1542 0.813118 13.0125 2.65468 13.0125 4.92637V15.4373C15.2745 16.8185 16.7857 19.2963 16.7857 22.1272C16.7857 26.4641 13.2381 29.9798 8.86197 29.9798C4.48585 29.9798 0.938293 26.4641 0.938293 22.1272C0.938293 19.2963 2.44946 16.8185 4.71147 15.4373V4.92637C4.71147 2.65468 6.56972 0.813118 8.86197 0.813118ZM6.59806 16.5792C4.3856 17.4668 2.82488 19.6164 2.82488 22.1272C2.82488 25.4315 5.52778 28.1101 8.86197 28.1101C12.1962 28.1101 14.8991 25.4315 14.8991 22.1272C14.8991 19.6164 13.3383 17.4668 11.1259 16.5792V4.92637C11.1259 3.68727 10.1123 2.68278 8.86197 2.68278C7.61165 2.68278 6.59806 3.68727 6.59806 4.92637V16.5792Z" fill="#231815"/>
<path fill-rule="evenodd" clip-rule="evenodd" d="M8.86197 4.97978C9.55294 4.97978 10.1131 5.53992 10.1131 6.23089V17.2206C12.2715 17.7757 13.8664 19.7333 13.8664 22.0631C13.8664 24.8245 11.6258 27.0631 8.86197 27.0631C6.0981 27.0631 3.85754 24.8245 3.85754 22.0631C3.85754 19.7333 5.45242 17.7757 7.61087 17.2206V6.23089C7.61087 5.53992 8.171 4.97978 8.86197 4.97978Z" fill="#B6411F"/>
</svg>
